<svg xmlns="http://www.w3.org/2000/svg" version="1.1" xmlns:xlink="http://www.w3.org/1999/xlink" xmlns:svgjs="http://svgjs.dev/svgjs" viewBox="0 0 800 400"><path d="M1.7937219142913818,299.55157470703125C1.7937219142913818,299.55157470703125,71.7488784790039,397.3094177246094,71.7488784790039,397.3094177246094C71.7488784790039,397.3094177246094,128.25111389160156,226.90582275390625,128.25111389160156,226.90582275390625C128.25111389160156,226.90582275390625,202.69058227539062,340.80718994140625,202.69058227539062,340.80718994140625C202.69058227539062,340.80718994140625,260.0896911621094,161.4349822998047,260.0896911621094,161.4349822998047C260.0896911621094,161.4349822998047,346.1883544921875,284.304931640625,346.1883544921875,284.304931640625C346.1883544921875,284.304931640625,391.0314025878906,96.8609848022461,391.0314025878906,96.8609848022461C391.0314025878906,96.8609848022461,480.7174987792969,227.8026885986328,480.7174987792969,227.8026885986328C480.7174987792969,227.8026885986328,532.7354125976562,40.35874557495117,532.7354125976562,40.35874557495117C532.7354125976562,40.35874557495117,626.9058227539062,185.6502227783203,626.9058227539062,185.6502227783203C626.9058227539062,185.6502227783203,663.6771240234375,2.6905829906463623,663.6771240234375,2.6905829906463623C663.6771240234375,2.6905829906463623,753.3632202148438,126.4573974609375,753.3632202148438,126.4573974609375C753.3632202148438,126.4573974609375,799.1031494140625,26.008968353271484,799.1031494140625,26.008968353271484" fill="none" stroke-width="2" stroke="hsl(0, 0%, 20%)" stroke-linecap="round" stroke-dasharray="17 12"></path><defs><linearGradient id="SvgjsLinearGradient1004"><stop stop-color="hsl(37, 99%, 67%)" offset="0"></stop><stop stop-color="hsl(316, 73%, 52%)" offset="1"></stop></linearGradient></defs></svg>