<svg width="75" height="75" viewBox="0 0 75 75" fill="none" xmlns="http://www.w3.org/2000/svg">
<path d="M19.125 15.375H56.625C57.4538 15.375 58.2487 15.7042 58.8347 16.2903C59.4208 16.8763 59.75 17.6712 59.75 18.5C59.75 19.3288 59.4208 20.1237 58.8347 20.7097C58.2487 21.2958 57.4538 21.625 56.625 21.625H19.125C18.2962 21.625 17.5013 21.2958 16.9153 20.7097C16.3292 20.1237 16 19.3288 16 18.5C16 17.6712 16.3292 16.8763 16.9153 16.2903C17.5013 15.7042 18.2962 15.375 19.125 15.375V15.375ZM66 6V12.25H9.75V6H66ZM47.25 24.75H53.5V68.5H47.25V24.75ZM22.25 24.75H28.5V68.5H22.25V24.75ZM34.75 24.75H41V68.5H34.75V24.75Z" fill="#6B46C1"/>
</svg>
