<svg xmlns="http://www.w3.org/2000/svg" xmlns:xlink="http://www.w3.org/1999/xlink" version="1.1" id="Layer_1" x="0px" y="0px" style="enable-background:new 0 0 425.2 425.2;" xml:space="preserve" viewBox="87.5 191.3 250.1 42.8">
<style type="text/css">
	.st0{fill:#ECEAE4;}
	.st1{fill:#282727;}
	.st2{fill:#425195;}
	.st3{fill:none;}
	.st4{fill:#0D0D0D;}
	.st5{fill:none;stroke:#282727;stroke-miterlimit:10;}
	.st6{fill:none;stroke:#282727;stroke-miterlimit:10;stroke-dasharray:1.6227,1.6227,1.6227,1.6227;}
	.st7{fill:none;stroke:#282727;stroke-miterlimit:10;stroke-dasharray:1.6228,1.6228,1.6228,1.6228;}
	.st8{fill:none;stroke:#282727;stroke-miterlimit:10;stroke-dasharray:1.6221,1.6221,1.6221,1.6221;}
	.st9{fill:none;stroke:#282727;stroke-miterlimit:10;stroke-dasharray:1.6226,1.6226,1.6226,1.6226;}
</style>
<g>
	<g>
		<path class="st1" d="M128.7,215.5c0.2-0.5,0.4-1,0.6-1.4c0.9-1.6,2.1-2.8,3.6-3.7c1.5-0.9,3.2-1.3,5.1-1.3c1.9,0,3.6,0.4,5,1.3    c1.4,0.9,2.6,2.1,3.3,3.7c0.8,1.6,1.2,3.4,1.2,5.4c0,0.9-0.1,1.7-0.2,2.4l2.9,2.6l1.2,0.9v-19.7h-4.1v4.6    c-0.1-0.1-0.1-0.3-0.2-0.4c-1.1-1.5-2.4-2.7-4.1-3.5c-1.7-0.8-3.5-1.3-5.6-1.3c-2.6,0-4.9,0.6-6.9,1.9c-2,1.3-3.7,3-4.9,5.1    c-1.2,2.2-1.8,4.6-1.8,7.3c0,0.1,0,0.3,0,0.4L128.7,215.5z"/>
	</g>
	<g>
		<path class="st1" d="M177.1,220.3c0-0.3,0-0.6,0-0.9c0-2,0.4-3.7,1.3-5.3c0.9-1.5,2-2.8,3.6-3.7c1.5-0.9,3.2-1.3,5.1-1.3    c1.6,0,3,0.3,4.3,0.8c1.3,0.6,2.4,1.4,3.4,2.4l2.7-2.8c-1.2-1.4-2.8-2.5-4.6-3.3c-1.8-0.8-3.7-1.2-5.8-1.2c-2.7,0-5.1,0.6-7.3,1.9    c-2.2,1.2-3.9,3-5.1,5.1c-0.8,1.4-1.3,2.9-1.6,4.5L177.1,220.3z"/>
	</g>
	<g>
		<polygon class="st1" points="161.3,216.6 165.5,212.9 165.5,209.4 172.4,209.4 172.4,205.7 165.5,205.7 165.5,194.1 161.3,194.1     161.3,205.7 154.4,205.7 154.4,209.4 161.3,209.4   "/>
	</g>
	<g>
		<polygon class="st1" points="107.4,214.4 114.3,214.4 114.3,220.6 118.6,224.5 118.6,193 114.3,193 114.3,210.4 102.9,210.4   "/>
	</g>
	<g>
		<polygon class="st1" points="92.3,219.8 92.3,214.4 98.3,214.4 102.7,210.4 92.3,210.4 92.3,193 87.9,193 87.9,223.7   "/>
	</g>
	<g>
		<path class="st1" d="M266.2,215c0.1-0.2,0.2-0.4,0.3-0.6c0.8-1.4,1.8-2.5,3.2-3.4c1.3-0.8,2.9-1.2,4.6-1.2s3.3,0.4,4.6,1.2    c1.3,0.8,2.3,1.9,3.1,3.4c0.7,1.3,1,2.9,1.1,4.6l5-4.5v-9.1h-5.3v3.8c-1-1.3-2.1-2.3-3.6-3.1c-1.7-0.9-3.5-1.3-5.6-1.3    c-2.6,0-4.9,0.6-6.9,1.9c-1.8,1.2-3.3,2.7-4.5,4.6L266.2,215z"/>
	</g>
	<g>
		<polygon class="st1" points="297.5,214.7 302.7,219.4 302.7,210.2 309.6,210.2 309.6,205.4 302.7,205.4 302.7,193.8 297.5,193.8     297.5,205.4 290.6,205.4 290.6,210.2 297.5,210.2   "/>
	</g>
	<g>
		<path class="st1" d="M205.1,217c0-1.5,0.4-2.9,1-4.1c0.7-1.2,1.7-2.2,2.9-2.8c1.2-0.7,2.6-1,4.1-1c2.3,0,4.2,0.8,5.7,2.2    c1.4,1.5,2.2,3.4,2.2,5.8v0.8l4-3.6c-0.2-1.4-0.6-2.6-1.2-3.8c-0.9-1.7-2.2-3-3.8-3.9c-1.6-1-3.5-1.4-5.6-1.4    c-2.1,0-4,0.5-5.7,1.4c-1.5,0.8-2.6,1.9-3.6,3.3v-18h-4.1v21.4L205.1,217z"/>
	</g>
	<g>
		<path class="st1" d="M317.7,216.2c0.1-1.1,0.4-2.1,0.9-3c0.6-1.1,1.5-1.9,2.6-2.6c1.1-0.6,2.3-0.9,3.7-0.9c2.1,0,3.8,0.7,5.1,2    c1.3,1.4,2,3.1,2,5.2v0.3l5.3,4.8v-6.1c0-2.2-0.5-4.1-1.4-5.8s-2.2-3-3.8-3.9c-1.6-0.9-3.5-1.4-5.6-1.4s-4,0.5-5.7,1.4    c-1.3,0.7-2.3,1.6-3.2,2.7v-17.6h-5.3V221L317.7,216.2z"/>
	</g>
	<g>
		<path class="st1" d="M237.2,217.4h8.9c2.5,0,4.7-0.5,6.7-1.5c2-1,3.6-2.5,4.7-4.3c1.1-1.9,1.7-4.1,1.7-6.5c0-2.5-0.6-4.7-1.7-6.6    c-1.1-1.8-2.7-3.3-4.7-4.3c-2-1-4.2-1.5-6.7-1.5h-9.5h-1.8h-3.7v19.3L237.2,217.4z M236.6,197.4h9.2c1.5,0,2.9,0.3,4.1,0.9    c1.2,0.6,2.1,1.5,2.8,2.6c0.7,1.1,1,2.5,1,4c0,1.6-0.3,2.9-1,4c-0.7,1.1-1.6,2-2.8,2.6c-1.2,0.6-2.5,0.9-4.1,0.9h-9.2V197.4z"/>
	</g>
	<g>
		<polygon class="st1" points="102.9,214.4 102.8,214.4 102.8,214.4   "/>
	</g>
	<g>
		<path class="st1" d="M273.5,234.1c-2.6,0-5-0.7-7.1-2c-2.1-1.3-3.8-3.1-5-5.3c-1.2-2.2-1.8-4.8-1.8-7.5c0-1.1,0.1-2.1,0.3-3.2    c0.2-0.9,0.5-1.7,0.9-2.5l0,0l0.3,0.3l4.8,4.3l0,0.2c0,0.3,0,0.6,0,0.9c0,1.8,0.4,3.4,1.1,4.8c0.7,1.4,1.7,2.4,3,3.2    c1.3,0.8,2.8,1.2,4.5,1.2c0.8,0,1.6-0.1,2.3-0.3l0.2,0l0,0c1.4-0.4,2.6-1.1,3.5-2.2c0.6-0.7,1.1-1.5,1.5-2.3l0.1-0.1l6.4-5.8v15.9    h-6.1v-3.1c-0.9,1-1.9,1.7-3,2.3C277.6,233.7,275.6,234.1,273.5,234.1z M260.9,214.9c-0.4,1.4-0.6,2.9-0.6,4.4    c0,2.7,0.6,5.1,1.7,7.2c1.2,2.1,2.7,3.8,4.7,5c2,1.2,4.2,1.8,6.7,1.8c2,0,3.9-0.4,5.5-1.3c1.4-0.7,2.5-1.7,3.4-2.9l0.7-0.9v4.5    h4.6v-13.5l-5.1,4.6c-0.4,0.9-0.9,1.7-1.6,2.5c-1.1,1.2-2.3,2-3.8,2.4l-0.2,0.1l-0.2,0.1c-0.7,0.2-1.5,0.3-2.3,0.3    c-1.8,0-3.5-0.4-4.9-1.3c-1.4-0.8-2.5-2-3.3-3.5c-0.8-1.5-1.2-3.2-1.2-5.1c0-0.3,0-0.5,0-0.8L260.9,214.9l0-0.1L260.9,214.9z"/>
	</g>
	<g>
		<path class="st1" d="M303.1,233.5h-6v-15.7l6,5.4V233.5z M297.8,232.8h4.5v-9.2l-4.5-4V232.8z"/>
	</g>
	<g>
		<path class="st1" d="M237,233.5h-6.2v-18.4l6.2,5.6V233.5z M231.5,232.8h4.7V221l-4.7-4.2V232.8z"/>
	</g>
	<g>
		<path class="st1" d="M225.5,233.5h-4.9v-11.9l4.9-4.4V233.5z M221.4,232.8h3.4V219l-3.4,3V232.8z"/>
	</g>
	<g>
		<path class="st1" d="M318,233.5h-6v-8.7l6-5.4V233.5z M312.7,232.8h4.5v-11.7l-4.5,4V232.8z"/>
	</g>
	<g>
		<path class="st1" d="M92.6,233.5h-5.1v-6l5.1-4.5V233.5z M88.3,232.8h3.6v-8.1l-3.6,3.2V232.8z"/>
	</g>
	<g>
		<path class="st1" d="M337.6,233.5h-6.1v-13.1l6.1,5.4V233.5z M332.3,232.8h4.6v-6.6l-4.6-4.1V232.8z"/>
	</g>
	<g>
		<path class="st1" d="M119,233.5h-5.1v-9.7l5.1,4.5V233.5z M114.7,232.8h3.6v-4.1l-3.6-3.2V232.8z"/>
	</g>
	<g>
		<path class="st1" d="M137.4,234.1c-2.6,0-5-0.7-7.1-2c-2.1-1.3-3.8-3.1-5-5.2c-0.6-1-1-2.1-1.3-3.3l-0.1-0.2l4.6-4.1l0,0.8    c0.1,1.7,0.5,3.3,1.2,4.6c0.8,1.5,2,2.7,3.5,3.5c1.5,0.9,3.1,1.3,5,1.3c2.8,0,5-0.9,6.6-2.7c0.5-0.5,0.9-1.2,1.3-1.9l0.2-0.4    l4.3,3.9l1.3,1v4.3h-4.9v-3.8c-1,1.3-2.2,2.3-3.7,3.1C141.5,233.7,139.6,234.1,137.4,234.1z M124.7,223.6c0.3,1.1,0.7,2,1.2,2.9    c1.2,2.1,2.8,3.8,4.8,5c2,1.2,4.3,1.8,6.8,1.8c2,0,3.9-0.4,5.4-1.2c1.6-0.8,2.9-2,3.9-3.4c0.1-0.1,0.1-0.2,0.1-0.2l0.8-1.3v5.6    h3.4v-3.1l-1.1-0.8l-3.6-3.2c-0.3,0.6-0.7,1.1-1.2,1.6c-1.8,2-4.2,3-7.2,3c-2,0-3.8-0.5-5.3-1.4c-1.6-0.9-2.8-2.2-3.7-3.8    c-0.7-1.2-1.1-2.6-1.3-4.1L124.7,223.6z"/>
	</g>
	<g>
		<path class="st1" d="M187.1,234.1c-2.7,0-5.3-0.7-7.5-2c-2.2-1.3-4-3.1-5.2-5.3c-1.1-1.9-1.7-4.1-1.9-6.4l-0.1-0.9l7.5,6.7    c0.5,0.5,1,1,1.5,1.4l0.3,0.3l0.1,0.1l0.2,0.1c1.4,0.8,3.1,1.3,4.9,1.3c1.5,0,2.9-0.3,4.2-0.8l0,0c1.3-0.5,2.4-1.3,3.3-2.3    l0.3-0.3l3.3,3.3l-0.2,0.3c-1.3,1.5-2.9,2.6-4.8,3.4C191.3,233.7,189.2,234.1,187.1,234.1z M173.3,221.4c0.2,1.8,0.8,3.6,1.7,5.1    c1.2,2.1,2.9,3.8,5,5c2.1,1.2,4.5,1.8,7.1,1.8c2,0,4-0.4,5.7-1.1c1.6-0.7,3.1-1.7,4.3-3l-2.2-2.2c-0.9,1-2.1,1.7-3.3,2.2    c-1.4,0.6-2.9,0.9-4.5,0.9c-1.9,0-3.5-0.4-5.1-1.2l-0.5-0.3l-0.6-0.4c-0.6-0.4-1.1-0.9-1.6-1.4L173.3,221.4z"/>
	</g>
	<g>
		<path class="st1" d="M165.8,233.5h-4.9v-13.1l4.9-4.4V233.5z M161.7,232.8h3.4v-15l-3.4,3V232.8z"/>
	</g>
	<g>
		<path class="st1" d="M205.5,233.5h-4.9v-17.1l4.9,4.4V233.5z M201.3,232.8h3.4v-11.6l-3.4-3V232.8z"/>
	</g>
</g>
</svg>